<?xml version="1.0" encoding="UTF-8" standalone="no"?>
<!-- Created with Inkscape (http://www.inkscape.org/) -->

<svg
   xmlns:dc="http://purl.org/dc/elements/1.1/"
   xmlns:cc="http://creativecommons.org/ns#"
   xmlns:rdf="http://www.w3.org/1999/02/22-rdf-syntax-ns#"
   xmlns:svg="http://www.w3.org/2000/svg"
   xmlns="http://www.w3.org/2000/svg"
   xmlns:sodipodi="http://sodipodi.sourceforge.net/DTD/sodipodi-0.dtd"
   xmlns:inkscape="http://www.inkscape.org/namespaces/inkscape"
   id="svg2"
   sodipodi:version="0.32"
   inkscape:version="0.48.4 r9939"
   width="1136.49"
   height="799.99377"
   sodipodi:docname="Caution sign template.svg"
   version="1.0"
   inkscape:output_extension="org.inkscape.output.svg.inkscape">
  <metadata
     id="metadata7">
    <rdf:RDF>
      <cc:Work
         rdf:about="">
        <dc:format>image/svg+xml</dc:format>
        <dc:type
           rdf:resource="http://purl.org/dc/dcmitype/StillImage" />
      </cc:Work>
    </rdf:RDF>
  </metadata>
  <defs
     id="defs5">
    <inkscape:perspective
       sodipodi:type="inkscape:persp3d"
       inkscape:vp_x="0 : 265.625 : 1"
       inkscape:vp_y="0 : 1000 : 0"
       inkscape:vp_z="750 : 265.625 : 1"
       inkscape:persp3d-origin="375 : 177.08333 : 1"
       id="perspective3137" />
  </defs>
  <sodipodi:namedview
     inkscape:window-height="1018"
     inkscape:window-width="1920"
     inkscape:pageshadow="2"
     inkscape:pageopacity="0.0"
     borderopacity="1.0"
     bordercolor="#666666"
     pagecolor="#ffffff"
     id="base"
     inkscape:zoom="0.6380792"
     inkscape:cx="187.62909"
     inkscape:cy="354.46243"
     inkscape:window-x="-8"
     inkscape:window-y="-8"
     inkscape:current-layer="g2987"
     showgrid="false"
     fit-margin-top="0"
     fit-margin-left="0"
     fit-margin-right="0"
     fit-margin-bottom="0"
     inkscape:window-maximized="1" />
  <g
     id="g3909"
     inkscape:export-filename="D:\Рисунки\Рисунки впрок\Знаки безопасности\Опасность\Danger Caution.png"
     inkscape:export-xdpi="90"
     inkscape:export-ydpi="90"
     transform="translate(-4.2180879,267.93446)">
    <g
       id="g2987"
       transform="matrix(1.5232536,0,0,1.5232536,-2.2081382,-278.40683)">
      <rect
         style="fill:#f3c600;fill-opacity:1;fill-rule:evenodd;stroke:#000000;stroke-width:4;stroke-linecap:round;stroke-linejoin:round;stroke-miterlimit:4;stroke-opacity:1;stroke-dasharray:none;stroke-dashoffset:0"
         id="rect3937"
         width="742.0838"
         height="521.19159"
         x="6.220015"
         y="8.8770113"
         rx="16.412237"
         ry="16.412237" />
      <rect
         style="opacity:0.9;fill:#000000;fill-opacity:1;fill-rule:evenodd;stroke:none"
         id="rect2183"
         width="693.08905"
         height="160.22893"
         x="31.920141"
         y="38.348076"
         ry="16.412237"
         rx="16.412237" />
      <path
         style="font-size:153.18583679px;font-style:normal;font-variant:normal;font-weight:bold;font-stretch:normal;text-align:center;line-height:100%;writing-mode:lr-tb;text-anchor:middle;fill:#f4cc19;fill-opacity:1;stroke:none;font-family:Arial"
         d="M 138.875 78.65625 C 116.11638 78.656425 97.777933 86.56377 83.8125 102.375 C 69.847003 118.18653 62.843739 140.39123 62.84375 168.96875 C 62.843739 195.98482 69.795895 217.29788 83.6875 232.875 C 97.579042 248.45216 115.29864 256.21875 136.875 256.21875 C 154.31327 256.21875 168.72005 251.69018 180.0625 242.59375 C 191.40469 233.49734 199.49802 219.55197 204.375 200.8125 L 172.59375 190.15625 C 169.85965 202.72734 165.34316 211.95647 159.0625 217.8125 C 152.78163 223.6686 145.28159 226.59378 136.5625 226.59375 C 124.7398 226.59378 115.13908 221.99484 107.75 212.78125 C 100.36081 203.56775 96.656205 188.11282 96.65625 166.40625 C 96.656205 145.94914 100.40622 131.1356 107.90625 122 C 115.40617 112.86467 125.17437 108.31264 137.21875 108.3125 C 145.93784 108.31264 153.34136 110.87805 159.4375 116.03125 C 165.53343 121.18473 169.54746 128.22389 171.46875 137.125 L 203.9375 128.90625 C 200.24278 115.16414 194.7015 104.62101 187.3125 97.28125 C 174.89862 84.866544 158.75169 78.656425 138.875 78.65625 z M 834.375 78.65625 C 821.14836 78.656425 809.49806 80.940226 799.375 85.46875 C 791.76414 88.826396 784.76657 93.988453 778.375 100.9375 C 771.98337 107.88685 766.9133 115.72382 763.21875 124.46875 C 758.26801 136.33717 755.81249 151.00997 755.8125 168.5 C 755.81249 195.8284 762.92644 217.29788 777.1875 232.875 C 791.4485 248.45216 810.68119 256.21875 834.84375 256.21875 C 858.71057 256.21875 877.77007 248.40524 892.03125 232.75 C 906.29213 217.0948 913.40608 195.4063 913.40625 167.6875 C 913.40608 139.73463 906.21547 117.91316 891.84375 102.21875 C 877.47174 86.524642 858.31571 78.656425 834.375 78.65625 z M 279.4375 81.59375 L 216.125 253.3125 L 250.9375 253.3125 L 264.34375 214.28125 L 329.3125 214.28125 L 343.5 253.3125 L 379.1875 253.3125 L 314.125 81.59375 L 279.4375 81.59375 z M 396.46875 81.59375 L 396.46875 173.1875 C 396.46873 192.39548 397.54463 206.91184 399.6875 216.75 C 401.16531 223.38691 404.21982 229.73 408.875 235.78125 C 413.53013 241.83254 419.88899 246.74433 427.90625 250.53125 C 435.92341 254.31818 447.67023 256.21875 463.1875 256.21875 C 476.04451 256.21875 486.45712 254.4746 494.4375 251 C 502.41765 247.5254 508.79637 242.88733 513.5625 237.03125 C 518.32836 231.1752 521.60146 223.9796 523.375 215.46875 C 525.14825 206.95797 526.0311 192.39469 526.03125 171.78125 L 526.03125 81.59375 L 493.21875 81.59375 L 493.21875 176.59375 C 493.21864 190.1799 492.74173 199.89398 491.78125 205.75 C 490.82055 211.60611 487.97894 216.54137 483.25 220.5625 C 478.52085 224.5837 471.49773 226.59378 462.1875 226.59375 C 453.02489 226.59378 445.81442 224.47419 440.53125 220.21875 C 435.24796 215.96337 431.90389 210.30858 430.5 203.28125 C 429.68714 198.90877 429.2812 189.35112 429.28125 174.59375 L 429.28125 81.59375 L 396.46875 81.59375 z M 549.09375 81.59375 L 549.09375 110.65625 L 597.3125 110.65625 L 597.3125 253.3125 L 630.125 253.3125 L 630.125 110.65625 L 678.21875 110.65625 L 678.21875 81.59375 L 549.09375 81.59375 z M 698.5 81.59375 L 698.5 253.3125 L 731.3125 253.3125 L 731.3125 81.59375 L 698.5 81.59375 z M 939.25 81.59375 L 939.25 253.3125 L 969.71875 253.3125 L 969.71875 141.34375 L 1035.2188 253.3125 L 1068.1562 253.3125 L 1068.1562 81.59375 L 1037.6562 81.59375 L 1037.6562 196.25 L 971.15625 81.59375 L 939.25 81.59375 z M 834.71875 108.3125 C 848.24078 108.31264 859.08488 113.1306 867.25 122.8125 C 875.41487 132.49466 879.49987 147.1987 879.5 166.875 C 879.49987 186.78571 875.2928 201.70098 866.90625 211.65625 C 858.51946 221.61161 847.79743 226.59378 834.71875 226.59375 C 821.63989 226.59378 810.8412 221.56469 802.34375 211.53125 C 793.84619 201.4979 789.62496 186.78598 789.625 167.34375 C 789.62496 147.58937 793.75536 132.79928 802.03125 123 C 810.30703 113.20098 821.19654 108.31264 834.71875 108.3125 z M 296.375 121.65625 L 318.78125 185.375 L 274.4375 185.375 L 296.375 121.65625 z "
         transform="matrix(0.6564895,0,0,0.6564895,4.21875,6.875001)"
         id="text3881" />
    </g>
  </g>
</svg>
